<svg width="1156" height="1057" viewBox="0 0 1156 1057" fill="none" xmlns="http://www.w3.org/2000/svg">
<circle cx="106" cy="35" r="35" fill="#F3B514" fill-opacity="0.65"/>
<circle cx="106" cy="35" r="35" fill="#F3B514" fill-opacity="0.65"/>
<circle cx="106" cy="181" r="35" fill="#F3B514" fill-opacity="0.65"/>
<circle cx="106" cy="327" r="35" fill="#F3B514" fill-opacity="0.65"/>
<circle cx="106" cy="473" r="35" fill="#F3B514" fill-opacity="0.65"/>
<circle cx="106" cy="619" r="35" fill="#F3B514" fill-opacity="0.65"/>
<circle cx="106" cy="765" r="35" fill="#F3B514" fill-opacity="0.65"/>
<circle cx="106" cy="911" r="35" fill="#F3B514" fill-opacity="0.65"/>
<circle cx="106" cy="1057" r="35" fill="#F3B514" fill-opacity="0.65"/>
<circle cx="251" cy="35" r="35" fill="#F3B514" fill-opacity="0.65"/>
<circle cx="251" cy="35" r="35" fill="#F3B514" fill-opacity="0.65"/>
<circle cx="251" cy="181" r="35" fill="#F3B514" fill-opacity="0.65"/>
<circle cx="251" cy="327" r="35" fill="#F3B514" fill-opacity="0.65"/>
<circle cx="251" cy="473" r="35" fill="#F3B514" fill-opacity="0.65"/>
<circle cx="251" cy="619" r="35" fill="#F3B514" fill-opacity="0.65"/>
<circle cx="251" cy="765" r="35" fill="#F3B514" fill-opacity="0.65"/>
<circle cx="251" cy="911" r="35" fill="#F3B514" fill-opacity="0.65"/>
<circle cx="251" cy="1057" r="35" fill="#F3B514" fill-opacity="0.65"/>
<circle cx="396" cy="35" r="35" fill="#F3B514" fill-opacity="0.65"/>
<circle cx="396" cy="35" r="35" fill="#F3B514" fill-opacity="0.65"/>
<circle cx="396" cy="181" r="35" fill="#F3B514" fill-opacity="0.65"/>
<circle cx="396" cy="327" r="35" fill="#F3B514" fill-opacity="0.65"/>
<circle cx="396" cy="473" r="35" fill="#F3B514" fill-opacity="0.65"/>
<circle cx="396" cy="619" r="35" fill="#F3B514" fill-opacity="0.65"/>
<circle cx="396" cy="765" r="35" fill="#F3B514" fill-opacity="0.65"/>
<circle cx="396" cy="911" r="35" fill="#F3B514" fill-opacity="0.65"/>
<circle cx="396" cy="1057" r="35" fill="#F3B514" fill-opacity="0.65"/>
<circle cx="541" cy="35" r="35" fill="#F3B514" fill-opacity="0.65"/>
<circle cx="541" cy="35" r="35" fill="#F3B514" fill-opacity="0.65"/>
<circle cx="541" cy="181" r="35" fill="#F3B514" fill-opacity="0.65"/>
<circle cx="541" cy="327" r="35" fill="#F3B514" fill-opacity="0.65"/>
<circle cx="541" cy="473" r="35" fill="#F3B514" fill-opacity="0.65"/>
<circle cx="541" cy="619" r="35" fill="#F3B514" fill-opacity="0.65"/>
<circle cx="541" cy="765" r="35" fill="#F3B514" fill-opacity="0.65"/>
<circle cx="541" cy="911" r="35" fill="#F3B514" fill-opacity="0.65"/>
<circle cx="541" cy="1057" r="35" fill="#F3B514" fill-opacity="0.65"/>
<circle cx="686" cy="35" r="35" fill="#F3B514" fill-opacity="0.65"/>
<circle cx="686" cy="35" r="35" fill="#F3B514" fill-opacity="0.65"/>
<circle cx="686" cy="181" r="35" fill="#F3B514" fill-opacity="0.65"/>
<circle cx="686" cy="327" r="35" fill="#F3B514" fill-opacity="0.65"/>
<circle cx="686" cy="473" r="35" fill="#F3B514" fill-opacity="0.65"/>
<circle cx="686" cy="619" r="35" fill="#F3B514" fill-opacity="0.65"/>
<circle cx="686" cy="765" r="35" fill="#F3B514" fill-opacity="0.65"/>
<circle cx="686" cy="911" r="35" fill="#F3B514" fill-opacity="0.65"/>
<circle cx="686" cy="1057" r="35" fill="#F3B514" fill-opacity="0.65"/>
<circle cx="831" cy="35" r="35" fill="#F3B514" fill-opacity="0.65"/>
<circle cx="831" cy="35" r="35" fill="#F3B514" fill-opacity="0.65"/>
<circle cx="831" cy="181" r="35" fill="#F3B514" fill-opacity="0.65"/>
<circle cx="831" cy="327" r="35" fill="#F3B514" fill-opacity="0.65"/>
<circle cx="831" cy="473" r="35" fill="#F3B514" fill-opacity="0.65"/>
<circle cx="831" cy="619" r="35" fill="#F3B514" fill-opacity="0.65"/>
<circle cx="831" cy="765" r="35" fill="#F3B514" fill-opacity="0.65"/>
<circle cx="831" cy="911" r="35" fill="#F3B514" fill-opacity="0.65"/>
<circle cx="831" cy="1057" r="35" fill="#F3B514" fill-opacity="0.65"/>
<circle cx="976" cy="35" r="35" fill="#F3B514" fill-opacity="0.65"/>
<circle cx="976" cy="35" r="35" fill="#F3B514" fill-opacity="0.65"/>
<circle cx="976" cy="181" r="35" fill="#F3B514" fill-opacity="0.65"/>
<circle cx="976" cy="327" r="35" fill="#F3B514" fill-opacity="0.65"/>
<circle cx="976" cy="473" r="35" fill="#F3B514" fill-opacity="0.65"/>
<circle cx="976" cy="619" r="35" fill="#F3B514" fill-opacity="0.65"/>
<circle cx="976" cy="765" r="35" fill="#F3B514" fill-opacity="0.65"/>
<circle cx="976" cy="911" r="35" fill="#F3B514" fill-opacity="0.65"/>
<circle cx="976" cy="1057" r="35" fill="#F3B514" fill-opacity="0.65"/>
<circle cx="1121" cy="35" r="35" fill="#F3B514" fill-opacity="0.65"/>
<circle cx="1121" cy="35" r="35" fill="#F3B514" fill-opacity="0.65"/>
<circle cx="1121" cy="181" r="35" fill="#F3B514" fill-opacity="0.65"/>
<circle cx="1121" cy="327" r="35" fill="#F3B514" fill-opacity="0.65"/>
<circle cx="1121" cy="473" r="35" fill="#F3B514" fill-opacity="0.65"/>
<circle cx="1121" cy="619" r="35" fill="#F3B514" fill-opacity="0.65"/>
<circle cx="1121" cy="765" r="35" fill="#F3B514" fill-opacity="0.65"/>
<circle cx="1121" cy="911" r="35" fill="#F3B514" fill-opacity="0.65"/>
<circle cx="1121" cy="1057" r="35" fill="#F3B514" fill-opacity="0.65"/>
</svg>
