<svg width="1755" height="1322" viewBox="0 0 1755 1322" fill="none" xmlns="http://www.w3.org/2000/svg">
<circle cx="-34.6573" cy="1344.45" r="35" transform="rotate(-90.143 -34.6573 1344.45)" fill="#6C4EE4" fill-opacity="0.43"/>
<circle cx="111.342" cy="1344.09" r="35" transform="rotate(-90.143 111.342 1344.09)" fill="#6C4EE4" fill-opacity="0.43"/>
<circle cx="257.342" cy="1343.73" r="35" transform="rotate(-90.143 257.342 1343.73)" fill="#6C4EE4" fill-opacity="0.43"/>
<circle cx="403.341" cy="1343.36" r="35" transform="rotate(-90.143 403.341 1343.36)" fill="#6C4EE4" fill-opacity="0.43"/>
<circle cx="549.341" cy="1343" r="35" transform="rotate(-90.143 549.341 1343)" fill="#6C4EE4" fill-opacity="0.43"/>
<circle cx="695.341" cy="1342.63" r="35" transform="rotate(-90.143 695.341 1342.63)" fill="#6C4EE4" fill-opacity="0.43"/>
<circle cx="841.34" cy="1342.27" r="35" transform="rotate(-90.143 841.34 1342.27)" fill="#6C4EE4" fill-opacity="0.43"/>
<circle cx="987.34" cy="1341.9" r="35" transform="rotate(-90.143 987.34 1341.9)" fill="#6C4EE4" fill-opacity="0.43"/>
<circle cx="1133.34" cy="1341.54" r="35" transform="rotate(-90.143 1133.34 1341.54)" fill="#6C4EE4" fill-opacity="0.43"/>
<circle cx="1279.34" cy="1341.18" r="35" transform="rotate(-90.143 1279.34 1341.18)" fill="#6C4EE4" fill-opacity="0.43"/>
<circle cx="1425.34" cy="1340.81" r="35" transform="rotate(-90.143 1425.34 1340.81)" fill="#6C4EE4" fill-opacity="0.43"/>
<circle cx="1571.34" cy="1340.45" r="35" transform="rotate(-90.143 1571.34 1340.45)" fill="#6C4EE4" fill-opacity="0.43"/>
<circle cx="1717.34" cy="1340.08" r="35" transform="rotate(-90.143 1717.34 1340.08)" fill="#6C4EE4" fill-opacity="0.43"/>
<circle cx="-35.0191" cy="1199.46" r="35" transform="rotate(-90.143 -35.0191 1199.46)" fill="#6C4EE4" fill-opacity="0.43"/>
<circle cx="110.98" cy="1199.09" r="35" transform="rotate(-90.143 110.98 1199.09)" fill="#6C4EE4" fill-opacity="0.43"/>
<circle cx="256.98" cy="1198.73" r="35" transform="rotate(-90.143 256.98 1198.73)" fill="#6C4EE4" fill-opacity="0.43"/>
<circle cx="402.979" cy="1198.36" r="35" transform="rotate(-90.143 402.979 1198.36)" fill="#6C4EE4" fill-opacity="0.43"/>
<circle cx="548.979" cy="1198" r="35" transform="rotate(-90.143 548.979 1198)" fill="#6C4EE4" fill-opacity="0.43"/>
<circle cx="694.979" cy="1197.63" r="35" transform="rotate(-90.143 694.979 1197.63)" fill="#6C4EE4" fill-opacity="0.43"/>
<circle cx="840.978" cy="1197.27" r="35" transform="rotate(-90.143 840.978 1197.27)" fill="#6C4EE4" fill-opacity="0.43"/>
<circle cx="986.978" cy="1196.91" r="35" transform="rotate(-90.143 986.978 1196.91)" fill="#6C4EE4" fill-opacity="0.43"/>
<circle cx="1132.98" cy="1196.54" r="35" transform="rotate(-90.143 1132.98 1196.54)" fill="#6C4EE4" fill-opacity="0.43"/>
<circle cx="1278.98" cy="1196.18" r="35" transform="rotate(-90.143 1278.98 1196.18)" fill="#6C4EE4" fill-opacity="0.43"/>
<circle cx="1424.98" cy="1195.81" r="35" transform="rotate(-90.143 1424.98 1195.81)" fill="#6C4EE4" fill-opacity="0.43"/>
<circle cx="1570.98" cy="1195.45" r="35" transform="rotate(-90.143 1570.98 1195.45)" fill="#6C4EE4" fill-opacity="0.43"/>
<circle cx="1716.98" cy="1195.08" r="35" transform="rotate(-90.143 1716.98 1195.08)" fill="#6C4EE4" fill-opacity="0.43"/>
<circle cx="110.619" cy="1054.09" r="35" transform="rotate(-90.143 110.619 1054.09)" fill="#6C4EE4" fill-opacity="0.43"/>
<circle cx="256.618" cy="1053.73" r="35" transform="rotate(-90.143 256.618 1053.73)" fill="#6C4EE4" fill-opacity="0.43"/>
<circle cx="402.618" cy="1053.36" r="35" transform="rotate(-90.143 402.618 1053.36)" fill="#6C4EE4" fill-opacity="0.43"/>
<circle cx="548.618" cy="1053" r="35" transform="rotate(-90.143 548.618 1053)" fill="#6C4EE4" fill-opacity="0.43"/>
<circle cx="694.617" cy="1052.63" r="35" transform="rotate(-90.143 694.617 1052.63)" fill="#6C4EE4" fill-opacity="0.43"/>
<circle cx="840.617" cy="1052.27" r="35" transform="rotate(-90.143 840.617 1052.27)" fill="#6C4EE4" fill-opacity="0.43"/>
<circle cx="986.616" cy="1051.91" r="35" transform="rotate(-90.143 986.616 1051.91)" fill="#6C4EE4" fill-opacity="0.43"/>
<circle cx="1132.62" cy="1051.54" r="35" transform="rotate(-90.143 1132.62 1051.54)" fill="#6C4EE4" fill-opacity="0.43"/>
<circle cx="1278.62" cy="1051.18" r="35" transform="rotate(-90.143 1278.62 1051.18)" fill="#6C4EE4" fill-opacity="0.43"/>
<circle cx="1424.61" cy="1050.81" r="35" transform="rotate(-90.143 1424.61 1050.81)" fill="#6C4EE4" fill-opacity="0.43"/>
<circle cx="1570.61" cy="1050.45" r="35" transform="rotate(-90.143 1570.61 1050.45)" fill="#6C4EE4" fill-opacity="0.43"/>
<circle cx="1716.61" cy="1050.08" r="35" transform="rotate(-90.143 1716.61 1050.08)" fill="#6C4EE4" fill-opacity="0.43"/>
<circle cx="110.257" cy="909.092" r="35" transform="rotate(-90.143 110.257 909.092)" fill="#6C4EE4" fill-opacity="0.43"/>
<circle cx="256.256" cy="908.728" r="35" transform="rotate(-90.143 256.256 908.728)" fill="#6C4EE4" fill-opacity="0.43"/>
<circle cx="402.256" cy="908.363" r="35" transform="rotate(-90.143 402.256 908.363)" fill="#6C4EE4" fill-opacity="0.43"/>
<circle cx="548.256" cy="907.999" r="35" transform="rotate(-90.143 548.256 907.999)" fill="#6C4EE4" fill-opacity="0.43"/>
<circle cx="694.255" cy="907.635" r="35" transform="rotate(-90.143 694.255 907.635)" fill="#6C4EE4" fill-opacity="0.43"/>
<circle cx="840.255" cy="907.27" r="35" transform="rotate(-90.143 840.255 907.27)" fill="#6C4EE4" fill-opacity="0.43"/>
<circle cx="986.254" cy="906.906" r="35" transform="rotate(-90.143 986.254 906.906)" fill="#6C4EE4" fill-opacity="0.43"/>
<circle cx="1132.25" cy="906.542" r="35" transform="rotate(-90.143 1132.25 906.542)" fill="#6C4EE4" fill-opacity="0.43"/>
<circle cx="1278.25" cy="906.178" r="35" transform="rotate(-90.143 1278.25 906.178)" fill="#6C4EE4" fill-opacity="0.43"/>
<circle cx="1424.25" cy="905.813" r="35" transform="rotate(-90.143 1424.25 905.813)" fill="#6C4EE4" fill-opacity="0.43"/>
<circle cx="1570.25" cy="905.449" r="35" transform="rotate(-90.143 1570.25 905.449)" fill="#6C4EE4" fill-opacity="0.43"/>
<circle cx="1716.25" cy="905.085" r="35" transform="rotate(-90.143 1716.25 905.085)" fill="#6C4EE4" fill-opacity="0.43"/>
<circle cx="109.895" cy="764.092" r="35" transform="rotate(-90.143 109.895 764.092)" fill="#6C4EE4" fill-opacity="0.43"/>
<circle cx="255.894" cy="763.728" r="35" transform="rotate(-90.143 255.894 763.728)" fill="#6C4EE4" fill-opacity="0.43"/>
<circle cx="401.894" cy="763.364" r="35" transform="rotate(-90.143 401.894 763.364)" fill="#6C4EE4" fill-opacity="0.43"/>
<circle cx="547.894" cy="762.999" r="35" transform="rotate(-90.143 547.894 762.999)" fill="#6C4EE4" fill-opacity="0.43"/>
<circle cx="693.893" cy="762.635" r="35" transform="rotate(-90.143 693.893 762.635)" fill="#6C4EE4" fill-opacity="0.43"/>
<circle cx="839.893" cy="762.271" r="35" transform="rotate(-90.143 839.893 762.271)" fill="#6C4EE4" fill-opacity="0.43"/>
<circle cx="985.893" cy="761.907" r="35" transform="rotate(-90.143 985.893 761.907)" fill="#6C4EE4" fill-opacity="0.43"/>
<circle cx="1131.89" cy="761.542" r="35" transform="rotate(-90.143 1131.89 761.542)" fill="#6C4EE4" fill-opacity="0.43"/>
<circle cx="1277.89" cy="761.178" r="35" transform="rotate(-90.143 1277.89 761.178)" fill="#6C4EE4" fill-opacity="0.43"/>
<circle cx="1423.89" cy="760.814" r="35" transform="rotate(-90.143 1423.89 760.814)" fill="#6C4EE4" fill-opacity="0.43"/>
<circle cx="1569.89" cy="760.449" r="35" transform="rotate(-90.143 1569.89 760.449)" fill="#6C4EE4" fill-opacity="0.43"/>
<circle cx="1715.89" cy="760.085" r="35" transform="rotate(-90.143 1715.89 760.085)" fill="#6C4EE4" fill-opacity="0.43"/>
<circle cx="109.533" cy="619.093" r="35" transform="rotate(-90.143 109.533 619.093)" fill="#6C4EE4" fill-opacity="0.43"/>
<circle cx="255.533" cy="618.729" r="35" transform="rotate(-90.143 255.533 618.729)" fill="#6C4EE4" fill-opacity="0.43"/>
<circle cx="401.533" cy="618.364" r="35" transform="rotate(-90.143 401.533 618.364)" fill="#6C4EE4" fill-opacity="0.43"/>
<circle cx="547.532" cy="618" r="35" transform="rotate(-90.143 547.532 618)" fill="#6C4EE4" fill-opacity="0.43"/>
<circle cx="693.532" cy="617.636" r="35" transform="rotate(-90.143 693.532 617.636)" fill="#6C4EE4" fill-opacity="0.43"/>
<circle cx="839.531" cy="617.271" r="35" transform="rotate(-90.143 839.531 617.271)" fill="#6C4EE4" fill-opacity="0.43"/>
<circle cx="985.531" cy="616.907" r="35" transform="rotate(-90.143 985.531 616.907)" fill="#6C4EE4" fill-opacity="0.43"/>
<circle cx="1131.53" cy="616.543" r="35" transform="rotate(-90.143 1131.53 616.543)" fill="#6C4EE4" fill-opacity="0.43"/>
<circle cx="1277.53" cy="616.178" r="35" transform="rotate(-90.143 1277.53 616.178)" fill="#6C4EE4" fill-opacity="0.43"/>
<circle cx="1423.53" cy="615.814" r="35" transform="rotate(-90.143 1423.53 615.814)" fill="#6C4EE4" fill-opacity="0.43"/>
<circle cx="1569.53" cy="615.45" r="35" transform="rotate(-90.143 1569.53 615.45)" fill="#6C4EE4" fill-opacity="0.43"/>
<circle cx="1715.53" cy="615.086" r="35" transform="rotate(-90.143 1715.53 615.086)" fill="#6C4EE4" fill-opacity="0.43"/>
<circle cx="109.171" cy="474.093" r="35" transform="rotate(-90.143 109.171 474.093)" fill="#6C4EE4" fill-opacity="0.43"/>
<circle cx="255.171" cy="473.729" r="35" transform="rotate(-90.143 255.171 473.729)" fill="#6C4EE4" fill-opacity="0.43"/>
<circle cx="401.171" cy="473.365" r="35" transform="rotate(-90.143 401.171 473.365)" fill="#6C4EE4" fill-opacity="0.43"/>
<circle cx="547.17" cy="473" r="35" transform="rotate(-90.143 547.17 473)" fill="#6C4EE4" fill-opacity="0.43"/>
<circle cx="693.17" cy="472.636" r="35" transform="rotate(-90.143 693.17 472.636)" fill="#6C4EE4" fill-opacity="0.43"/>
<circle cx="839.169" cy="472.272" r="35" transform="rotate(-90.143 839.169 472.272)" fill="#6C4EE4" fill-opacity="0.43"/>
<circle cx="985.169" cy="471.908" r="35" transform="rotate(-90.143 985.169 471.908)" fill="#6C4EE4" fill-opacity="0.43"/>
<circle cx="1131.17" cy="471.543" r="35" transform="rotate(-90.143 1131.17 471.543)" fill="#6C4EE4" fill-opacity="0.43"/>
<circle cx="1277.17" cy="471.179" r="35" transform="rotate(-90.143 1277.17 471.179)" fill="#6C4EE4" fill-opacity="0.43"/>
<circle cx="1423.17" cy="470.815" r="35" transform="rotate(-90.143 1423.17 470.815)" fill="#6C4EE4" fill-opacity="0.43"/>
<circle cx="1569.17" cy="470.45" r="35" transform="rotate(-90.143 1569.17 470.45)" fill="#6C4EE4" fill-opacity="0.43"/>
<circle cx="1715.17" cy="470.086" r="35" transform="rotate(-90.143 1715.17 470.086)" fill="#6C4EE4" fill-opacity="0.43"/>
<circle cx="108.81" cy="329.094" r="35" transform="rotate(-90.143 108.81 329.094)" fill="#6C4EE4" fill-opacity="0.43"/>
<circle cx="254.809" cy="328.729" r="35" transform="rotate(-90.143 254.809 328.729)" fill="#6C4EE4" fill-opacity="0.43"/>
<circle cx="400.809" cy="328.365" r="35" transform="rotate(-90.143 400.809 328.365)" fill="#6C4EE4" fill-opacity="0.43"/>
<circle cx="546.809" cy="328.001" r="35" transform="rotate(-90.143 546.809 328.001)" fill="#6C4EE4" fill-opacity="0.43"/>
<circle cx="692.808" cy="327.637" r="35" transform="rotate(-90.143 692.808 327.637)" fill="#6C4EE4" fill-opacity="0.43"/>
<circle cx="838.808" cy="327.272" r="35" transform="rotate(-90.143 838.808 327.272)" fill="#6C4EE4" fill-opacity="0.43"/>
<circle cx="984.807" cy="326.908" r="35" transform="rotate(-90.143 984.807 326.908)" fill="#6C4EE4" fill-opacity="0.43"/>
<circle cx="1130.81" cy="326.544" r="35" transform="rotate(-90.143 1130.81 326.544)" fill="#6C4EE4" fill-opacity="0.43"/>
<circle cx="1276.81" cy="326.179" r="35" transform="rotate(-90.143 1276.81 326.179)" fill="#6C4EE4" fill-opacity="0.43"/>
<circle cx="1422.81" cy="325.815" r="35" transform="rotate(-90.143 1422.81 325.815)" fill="#6C4EE4" fill-opacity="0.43"/>
<circle cx="1568.81" cy="325.451" r="35" transform="rotate(-90.143 1568.81 325.451)" fill="#6C4EE4" fill-opacity="0.43"/>
<circle cx="1714.8" cy="325.086" r="35" transform="rotate(-90.143 1714.8 325.086)" fill="#6C4EE4" fill-opacity="0.43"/>
<circle cx="108.448" cy="184.094" r="35" transform="rotate(-90.143 108.448 184.094)" fill="#6C4EE4" fill-opacity="0.43"/>
<circle cx="254.447" cy="183.73" r="35" transform="rotate(-90.143 254.447 183.73)" fill="#6C4EE4" fill-opacity="0.43"/>
<circle cx="400.447" cy="183.366" r="35" transform="rotate(-90.143 400.447 183.366)" fill="#6C4EE4" fill-opacity="0.43"/>
<circle cx="546.447" cy="183.001" r="35" transform="rotate(-90.143 546.447 183.001)" fill="#6C4EE4" fill-opacity="0.43"/>
<circle cx="692.446" cy="182.637" r="35" transform="rotate(-90.143 692.446 182.637)" fill="#6C4EE4" fill-opacity="0.43"/>
<circle cx="838.446" cy="182.273" r="35" transform="rotate(-90.143 838.446 182.273)" fill="#6C4EE4" fill-opacity="0.43"/>
<circle cx="984.445" cy="181.908" r="35" transform="rotate(-90.143 984.445 181.908)" fill="#6C4EE4" fill-opacity="0.43"/>
<circle cx="1130.44" cy="181.544" r="35" transform="rotate(-90.143 1130.44 181.544)" fill="#6C4EE4" fill-opacity="0.43"/>
<circle cx="1276.44" cy="181.18" r="35" transform="rotate(-90.143 1276.44 181.18)" fill="#6C4EE4" fill-opacity="0.43"/>
<circle cx="1422.44" cy="180.816" r="35" transform="rotate(-90.143 1422.44 180.816)" fill="#6C4EE4" fill-opacity="0.43"/>
<circle cx="1568.44" cy="180.451" r="35" transform="rotate(-90.143 1568.44 180.451)" fill="#6C4EE4" fill-opacity="0.43"/>
<circle cx="1714.44" cy="180.087" r="35" transform="rotate(-90.143 1714.44 180.087)" fill="#6C4EE4" fill-opacity="0.43"/>
<circle cx="108.086" cy="39.0947" r="35" transform="rotate(-90.143 108.086 39.0947)" fill="#6C4EE4" fill-opacity="0.43"/>
<circle cx="254.085" cy="38.7304" r="35" transform="rotate(-90.143 254.085 38.7304)" fill="#6C4EE4" fill-opacity="0.43"/>
<circle cx="400.085" cy="38.3661" r="35" transform="rotate(-90.143 400.085 38.3661)" fill="#6C4EE4" fill-opacity="0.43"/>
<circle cx="546.085" cy="38.0019" r="35" transform="rotate(-90.143 546.085 38.0019)" fill="#6C4EE4" fill-opacity="0.43"/>
<circle cx="692.084" cy="37.6374" r="35" transform="rotate(-90.143 692.084 37.6374)" fill="#6C4EE4" fill-opacity="0.43"/>
<circle cx="838.084" cy="37.2731" r="35" transform="rotate(-90.143 838.084 37.2731)" fill="#6C4EE4" fill-opacity="0.43"/>
<circle cx="984.083" cy="36.9089" r="35" transform="rotate(-90.143 984.083 36.9089)" fill="#6C4EE4" fill-opacity="0.43"/>
<circle cx="1130.08" cy="36.5446" r="35" transform="rotate(-90.143 1130.08 36.5446)" fill="#6C4EE4" fill-opacity="0.43"/>
<circle cx="1276.08" cy="36.1804" r="35" transform="rotate(-90.143 1276.08 36.1804)" fill="#6C4EE4" fill-opacity="0.43"/>
<circle cx="1422.08" cy="35.8159" r="35" transform="rotate(-90.143 1422.08 35.8159)" fill="#6C4EE4" fill-opacity="0.43"/>
<circle cx="1568.08" cy="35.4516" r="35" transform="rotate(-90.143 1568.08 35.4516)" fill="#6C4EE4" fill-opacity="0.43"/>
<circle cx="1714.08" cy="35.0873" r="35" transform="rotate(-90.143 1714.08 35.0873)" fill="#6C4EE4" fill-opacity="0.43"/>
</svg>
