<svg xmlns="http://www.w3.org/2000/svg" width="739.88" height="842.37" viewBox="0 0 739.88 842.37"><path d="M369.39,831.83c110.62,0,200.51-.49,200.42,5.24-.09,6.2-89.8,5.24-200.42,5.24S169,843,169,837.07,258.78,831.83,369.39,831.83Z" fill-rule="evenodd"/><path d="M370.49,731.29H85c-109,0-106.38-111.68-30.65-187.4S194,520.15,194,520.15,199.08,389,265.48,389s85.95,40.87,85.95,40.87l18,129.41Z" fill="#fff2d6" fill-rule="evenodd"/><path d="M369.39,731.29h285.5c109,0,106.37-111.68,30.65-187.4s-139.63-23.74-139.63-23.74S540.8,389,474.39,389s-85.93,40.87-85.93,40.87l-18,129.41Z" fill="#fff2d6" fill-rule="evenodd"/><path d="M412.53,114.7s3.09,10.42,6.32,21.27A37.63,37.63,0,0,0,451,162.68L473.09,165s-4.32,10-8.83,20.35a37.63,37.63,0,0,0,7.48,41.15l15.44,15.93-19.85,9.91a37.65,37.65,0,0,0-20.72,36.34c.81,11.29,1.58,22.12,1.58,22.12l-21.57-5.16a37.6,37.6,0,0,0-39.22,14.51c-6.64,9.17-13,18-13,18l-13.2-17.82a37.62,37.62,0,0,0-39.37-14.09l-21.52,5.4s.65-10.84,1.34-22.14a37.63,37.63,0,0,0-21.11-36.11l-19.95-9.69,15.26-16.1a37.63,37.63,0,0,0,7-41.23L273.82,166l22-2.53a37.62,37.62,0,0,0,31.89-27c3.1-10.89,6.08-21.33,6.08-21.33l18.51,12.23a37.63,37.63,0,0,0,41.82-.23Z" fill="#ffdc8e" fill-rule="evenodd"/><path d="M358,236c0-6.32,5.15-19,11.74-24.58s9.23-7.87,11.74-9.68,1.15-6.75-2.66-4.45-9.75,5.63-9.75,5.63,7.19-6.39,9.78-8.75,2.07-6-1.78-3.85-9.61,5.52-9.61,5.52,6.56-6.27,8.34-8.28.4-4.6-3.28-2.24-8.62,5.81-8.62,5.81,5.16-5.81,7.06-7.71.36-4.6-2.64-2.3-12,8-16.9,14.61V184.84c0-1.73-2.71-3.28-3.86.11s-18.94,24.17-18.94,51Z" fill="#a36a63" fill-rule="evenodd"/><rect x="351.43" y="48.52" width="47.02" height="202.3" fill="#ff8173"/><path d="M398.44,250.82h-47A21.52,21.52,0,0,0,373,272.35h4a21.52,21.52,0,0,0,21.52-21.52Z" fill="#fff" fill-rule="evenodd"/><path d="M391.82,235.55c0-6.32-5.11-18.53-11.71-24.15s-9.22-7.87-11.73-9.68-1.15-6.75,2.66-4.45,9.74,5.63,9.74,5.63-7.18-6.39-9.77-8.75-2.07-6,1.78-3.85,9.61,5.52,9.61,5.52-6.56-6.27-8.34-8.28-.4-4.6,3.27-2.24,8.63,5.81,8.63,5.81-5.16-5.81-7.06-7.71-.36-4.6,2.63-2.3,12,8,16.91,14.61V184.84c0-1.73,2.71-3.28,3.86.11s18.94,24.17,18.94,51C412.64,236,397,235.55,391.82,235.55Z" fill="#a36a63" fill-rule="evenodd"/><path d="M328.63,236c-3.57,19.88-15.13,56.73-15.13,90.59V529.26h114l-.28-84.44H351.43V236S340.61,235.75,328.63,236Z" fill="#a8e7c7" fill-rule="evenodd"/><line x1="337.7" y1="444.82" x2="351.43" y2="444.82" fill="none" stroke="#6ed7a1" stroke-linecap="round" stroke-linejoin="round" stroke-width="1.67"/><path d="M374.86,395.14c7.18-1,15.57,3.31,18.52,13.42s-2.86,17.38-9.5,24.56C376,416.85,367.67,396.13,374.86,395.14Z" fill-rule="evenodd"/><path d="M350.91,410.11s-13.51-26.6-10-42.89,11.79-6.87,17.41.15,20.29,34.2,26.71,47.5C377.83,414.87,350.91,410.11,350.91,410.11Z" fill="#ff8173" fill-rule="evenodd"/><polygon points="382.18 435.17 385.03 444.82 366.07 444.82 382.18 435.17" fill="#ff8173" fill-rule="evenodd"/><path d="M364.32,398.47c-8.95,3.86-26.74,22.62-18.78,40.9,6.84,15.7,33,1.58,38.27-6.14s2.85-20.71-4.74-26.73C372.58,401.36,370.4,400.18,364.32,398.47Z" fill="#a36a63" fill-rule="evenodd"/><path d="M391.82,444.82s35.66,51.44,35.66,11.88V325.28c0-19.71-6.24-89.3-6.24-89.3l-29.42-.43Z" fill="#a8e7c7" fill-rule="evenodd"/><line x1="391.82" y1="444.82" x2="391.82" y2="458.55" fill="none" stroke="#6ed7a1" stroke-linecap="round" stroke-linejoin="round" stroke-width="1.67"/><rect x="313.5" y="529.26" width="113.99" height="14.63" fill="#6ed7a1"/><polygon points="346.21 543.89 370.49 616.78 427.48 770.12 487.56 770.12 427.48 543.89 346.21 543.89" fill="#ffdc8e" fill-rule="evenodd"/><polygon points="370.49 543.89 370.49 616.78 313.5 770.12 253.41 770.12 313.5 543.89 370.49 543.89" fill="#ffdc8e" fill-rule="evenodd"/><line x1="413.44" y1="444.82" x2="403.02" y2="467.9" fill="none" stroke="#6ed7a1" stroke-linecap="round" stroke-linejoin="round" stroke-width="1.67"/><line x1="328.52" y1="512.49" x2="391.33" y2="512.49" fill="none" stroke="#6ed7a1" stroke-linecap="round" stroke-linejoin="round" stroke-width="1.67"/><line x1="344.56" y1="502.07" x2="370.49" y2="512.49" fill="none" stroke="#6ed7a1" stroke-linecap="round" stroke-linejoin="round" stroke-width="1.67"/><polygon points="391.82 235.55 421.24 235.55 422.53 250.82 391.82 250.82 391.82 235.55" fill="#6ed7a1" fill-rule="evenodd"/><polygon points="328.63 235.98 351.43 235.98 351.43 250.82 325.44 250.82 328.63 235.98" fill="#6ed7a1" fill-rule="evenodd"/><polygon points="487.56 770.07 493.41 792.1 462.99 792.1 453.4 770.07 487.56 770.07" fill="#fec8c2" fill-rule="evenodd"/><polygon points="253.56 770.07 247.71 792.1 278.13 792.1 287.72 770.07 253.56 770.07" fill="#fec8c2" fill-rule="evenodd"/><path d="M493.41,792.1H463l19.61,45h67.13s.68-8.84-9.26-11.58-37.49-7.83-40.64-16.43S493.41,792.1,493.41,792.1Z" fill="#6e86ff" fill-rule="evenodd"/><path d="M247.62,792.1H278l-19.6,45H191.3s-.68-8.84,9.26-11.58,37.48-7.83,40.64-16.43S247.62,792.1,247.62,792.1Z" fill="#6e86ff" fill-rule="evenodd"/><path d="M258.26,799.52a4.59,4.59,0,1,1-4.58,4.59A4.6,4.6,0,0,1,258.26,799.52Z" fill="#ffdc8e" fill-rule="evenodd"/><path d="M482.88,799.52a4.59,4.59,0,1,0,4.58,4.59A4.6,4.6,0,0,0,482.88,799.52Z" fill="#ffdc8e" fill-rule="evenodd"/><path d="M278,792.1h9.69s-5.19,5.45-7.8,5.45c0,2.69-3.58,3.92-6,3.92C275.25,798.45,278,792.1,278,792.1Z" fill="#ffdc8e" fill-rule="evenodd"/><path d="M463.1,792.1h-9.69s5.2,5.45,7.81,5.45c0,2.69,3.58,3.92,6,3.92C465.89,798.45,463.1,792.1,463.1,792.1Z" fill="#ffdc8e" fill-rule="evenodd"/><line x1="370.49" y1="616.74" x2="370.49" y2="597.83" fill="none" stroke="#ffbf32" stroke-linecap="round" stroke-linejoin="round" stroke-width="1.67"/><line x1="338.66" y1="580.77" x2="370.49" y2="597.83" fill="none" stroke="#ffbf32" stroke-linecap="round" stroke-linejoin="round" stroke-width="1.67"/><line x1="402.32" y1="580.77" x2="370.49" y2="597.83" fill="none" stroke="#ffbf32" stroke-linecap="round" stroke-linejoin="round" stroke-width="1.67"/><polygon points="374.94 0 398.44 48.52 351.43 48.52 374.94 0" fill="#ffdc8e" fill-rule="evenodd"/><polygon points="374.94 0 380.48 11.44 369.39 11.44 374.94 0" fill="#6e86ff" fill-rule="evenodd"/><path d="M376.71,408s-10.92-.36-17.44,4.56" fill="none" stroke="#000" stroke-linecap="round" stroke-linejoin="round" stroke-width="1.67"/><path d="M358.11,402.5s-1.33-5.6.09-6.05,6.37,2.25,8.16,3.44C363.59,401.54,358.11,402.5,358.11,402.5Z" fill="#a36a63" fill-rule="evenodd"/><line x1="225.99" y1="226.39" x2="62.53" y2="226.39" fill="none" stroke="#ffdc8e" stroke-linecap="round" stroke-linejoin="round" stroke-width="1.67"/><line x1="507.56" y1="226.39" x2="658.91" y2="226.39" fill="none" stroke="#ffdc8e" stroke-linecap="round" stroke-linejoin="round" stroke-width="1.67"/><line x1="273.44" y1="125.95" x2="200.01" y2="52.52" fill="none" stroke="#ffdc8e" stroke-linecap="round" stroke-linejoin="round" stroke-width="1.67"/><line x1="485.56" y1="114.7" x2="531.82" y2="68.44" fill="none" stroke="#ffdc8e" stroke-linecap="round" stroke-linejoin="round" stroke-width="1.67"/><path d="M205.41,149.67a20,20,0,0,0-19.84,19.83v.13a20,20,0,0,0-20-20,20,20,0,0,0,20-20v.13a20,20,0,0,0,20,19.83Z" fill="#ffdc8e" fill-rule="evenodd"/><path d="M566.79,149.67A20,20,0,0,0,547,169.5v.13a20,20,0,0,0-20-20,20,20,0,0,0,20-20v.13a20,20,0,0,0,20,19.83Z" fill="#ffdc8e" fill-rule="evenodd"/><path d="M296.64,38a10.56,10.56,0,0,0-10.48,10.49v.07A10.56,10.56,0,0,0,275.6,38,10.56,10.56,0,0,0,286.16,27.4v.08A10.55,10.55,0,0,0,296.71,38Z" fill="#ffdc8e" fill-rule="evenodd"/><path d="M471.86,38a10.57,10.57,0,0,0-10.49,10.49v.07A10.56,10.56,0,0,0,450.81,38,10.56,10.56,0,0,0,461.37,27.4v.08A10.57,10.57,0,0,0,471.93,38Z" fill="#ffdc8e" fill-rule="evenodd"/></svg>