<svg width="567" height="422" xmlns="http://www.w3.org/2000/svg"><g fill="none" fill-rule="evenodd"><path d="M267 261s5.51-5.56 6-9" stroke="#000" stroke-width="1.67" stroke-linecap="round" stroke-linejoin="round"/><path d="M283.65 232c27.13.16 28.35 40 28.35 40l-31.27-.96L255 272s1.22-40 28.51-40h.14z" fill="#6E86FF"/><path d="M300 261s-5.5-5.56-6-9M267 261s5.51-5.56 6-9" stroke="#000" stroke-width="1.67" stroke-linecap="round" stroke-linejoin="round"/><path d="M290.76 260c.65 1.91 5.57 3.15 9.83 4.84 20.22 5.31 22.41 20.05 22.41 20.05-6.33 28.98-39.5 19.7-39.5 19.7v-.8c-12.25 1.77-34.92 2.03-39.5-18.9 0 0 2.2-14.74 22.41-20.05 4.26-1.7 9.18-2.92 9.83-4.84h14.52z" fill="#ACE4FF"/><path d="M277 261s1.24 12 7 12 7-12 7-12h-14z" fill="#FFDC8E"/><path d="M277 260s1.24 6 7 6 7-6 7-6h-14z" fill="#FF8173"/><path d="M283.5 236a13.5 13.5 0 110 27 13.5 13.5 0 010-27z" fill="#FFDC8E"/><path stroke="#FF8173" stroke-width="1.67" stroke-linecap="round" stroke-linejoin="round" d="M284 246l1 8h-3M279 256s4.03 4.4 8 .14"/><path d="M276.76 249.03a1 1 0 011.03 1.58A1 1 0 01276 250a.88.88 0 01.76-.97zM290.77 249.03a1 1 0 011.02 1.59A1 1 0 01290 250a.89.89 0 01.77-.97z" fill="#000" fill-rule="nonzero"/><path d="M269 247h30s-5.52-15-15.11-15c-9.6 0-14.89 15-14.89 15z" fill="#6E86FF"/><path d="M165.3 110.45s-23.89 2.47-37.8 4.62c-13.9 2.14-19.2 7.83-19.5 16.64-.29 8.8 7.2 14.83 12.8 15.66 5.62.83 59.28 1.63 59.28 1.63H237l-.32-30.49s-22.56-7.88-35.9-11.51c-16.22 3.03-35.49 3.45-35.49 3.45z" fill="#ACE4FF"/><path d="M194.88 65.08c11 5.6 14.42 20.75 7.62 33.8-6.8 13.06-20.74 17.99-32.26 13.5-8.63-3.37-11.15-11.08-4.34-24.13 1.2-2.3-.65-14.07.99-15.91 7.53-8.59 18.94-11.85 28-7.26z" fill="#FEC8C2"/><path d="M308.68 275.28c-2.02-3.63-5.04-8.27-6.26-10.28-1.23-2.02.46-3.35 2.22-1.53a24.61 24.61 0 004.02 3.26s-1.92-11.23-2.58-15c-.66-3.78 2.17-3.96 3.29-.76 1.19 3.49 3.76 11.23 3.76 11.23s-.84-10.98-1.14-13.1c-.3-2.1 2.3-3.32 2.88-.24.57 3.1 2.55 12.44 2.55 12.44l.97-12c.2-2.7 2.93-3.37 3.03.2.1 3.55.22 12.16.22 12.16s2.3-6.94 2.84-8.9c.55-1.95 3.06-1.57 2.42 1.67-.64 3.24-2.3 16.28-3.01 19.34-1.39 5.99-12 7.29-15.2 1.51z" fill="#FFDC8E"/><path d="M176 115.07l3.98 9.93c6.12.16 13.31-7.03 21.02-17.78l-1.25-3.22L176 115.07z" fill="#FEC8C2"/><path fill="#FF8173" d="M176 114l8 .5-6.62 3.5zM165.54 77.37c-2.54-2.2-4.9-4.24-4.82-6.28.08-2.03 4.55-2.43 4.31-4.96-.24-2.53-8.22-3.83-3.58-11.56C166.08 46.83 179 50 189.4 56.1c10.4 6.11 25.2 24.04 20.8 32.58A50.62 50.62 0 01198.8 103s1.74-9.9 2.47-14.3c.73-4.4-.08-6.12-2.36-6.94-2.27-.81-3.41 6.93-3.41 6.93h-2.68s1.13-6.11 1.46-10.26c.32-4.16-2.96-7.65-6.48-7.65h-19.82a45.35 45.35 0 00-2.44 6.59z"/><path d="M131 125h30.59c18.27 0 32.41 12 32.41 12" stroke="#A8E7C7" stroke-width="1.67" stroke-linecap="round" stroke-linejoin="round"/><path d="M169 79.1s3.42-.1 4.73-.1c1.3 0 4.36 2.05 3.24 5.02-1.13 2.96-4.25 10.44-4.25 10.44h6.33l-4.21 5.31s6.56 1.43 9.16-2.87M183 79.5h7" stroke="#FF8173" stroke-width="1.67" stroke-linecap="round" stroke-linejoin="round"/><path d="M170.1 83.06a1.5 1.5 0 11-.08 2.86 1.5 1.5 0 01-1.01-1.44c-.08-.69.4-1.32 1.08-1.42zM186.1 83.06a1.5 1.5 0 11-.08 2.86 1.5 1.5 0 01-1.01-1.44c-.08-.69.4-1.32 1.08-1.42zM283.5 415.01c156.47 0 283.62-.32 283.5 3.48-.13 4.11-127.03 3.47-283.5 3.47S0 422.4 0 418.5c0-3.9 127.03-3.48 283.5-3.48z" fill="#000" fill-rule="nonzero"/><path d="M284 334.96V418l-13.02-6.65-9.98-67.52s16.3-16.36 23-8.87zM284 334.96V418l13.02-6.65 9.98-67.52s-16.3-16.36-23-8.87z" fill="#FF8173"/><path d="M271.24 411c-3.34 0-11.24 4.7-11.24 7h24s-3.38-7-12.76-7zM296.76 411c3.34 0 11.24 4.7 11.24 7h-24s3.38-7 12.76-7zM437 300.36L455.17 269l47.55 15.25s19.97 4.72 15.67 19.64c-2.5 8.67-8.72 9.94-17.67 8.71-7.88-1.07-63.72-12.24-63.72-12.24z" fill="#6E86FF"/><path d="M463 271.73l-8.56-2.73L436 300.68s12.74 2.54 27 5.32v-34.27z" fill="#000" fill-rule="nonzero"/><path d="M453.96 274.23c.4 6.63-2.36 25.81-7.31 34.47-4.96 8.65-14.44 30.3-14.44 30.3H385s20.44-69.73 47.89-78.16c18.62-5.73 20.42 2.8 21.07 13.39z" fill="#6E86FF"/><path d="M452 278.73c.4 6.66-21.12 24.47-26.05 33.16-4.94 8.68 4.46 16.68 4.46 16.68L387 338s18.74-68.08 46.06-76.55c18.49-5.74 18.3 6.67 18.93 17.28z" fill="#000" fill-rule="nonzero"/><path fill="#6E86FF" d="M456.75 253l-8.75 6.88 6.8 23.12 11.2-13.74zM518.64 300.61c3.24-15.34 2.1-35.25 5.36-44.07-8.47-3.23-17.51-5.54-17.51-5.54s-9.14 34.7-11.5 42.98c-2.37 8.27-.78 17.84 8.08 18.86 8.86 1.02 13.59-2.8 15.57-12.23z"/><path d="M506.29 250.54c1.29-4.55 3.33-10.08 6.03-12.27 2.69-2.18 4.24-.86 2.84.8a5.43 5.43 0 00-1.22 3.66s7.02-7.06 10.74-10.67c2.33-2.25 3.75-.47 2.64 1.16-.9 1.34-4.75 6.58-6.04 8.57 4.6-3.52 7.41-5.75 10.18-7.7 2.78-1.94 4.27.04 2.48 1.74-1.65 1.59-7.51 6.38-8.86 8.3 3.8-1.95 7.74-3.66 11.77-5.12 3.06-1.06 4.32 1.02 1.62 2.41-2.69 1.4-10.1 4.54-11.27 5.85 2.7-.96 9.1-2.83 11.43-3.58 2.43-.78 3.44 1.76.84 3.06s-14.22 4.04-14.96 7.07c-.38 1.47-.59 2.5-.59 2.5-2.18 6.5-20.4 4.26-17.63-5.78zM468.65 225.1c-9.3 1.06-15.78 10.83-14.48 21.84 1.3 11 9.9 19.03 19.18 17.97 9.3-1.07 15.78-10.84 14.48-21.84-1.3-11-9.9-19.05-19.18-17.97z" fill="#FFDC8E"/><path d="M469.33 205.05c-4.65.54-7.9 5.44-7.25 10.93.65 5.5 4.95 9.53 9.6 8.97 4.64-.57 7.89-5.43 7.24-10.94-.65-5.5-4.95-9.5-9.6-8.96z" fill="#FF8173"/><path d="M455.48 251.43s4.12-2.66 4.92-7.05c.8-4.4 2.05-7.28 3.89-7.06 1.83.23 2.74 4.16 2.17 7.75-.57 3.58-1.14 9.93-1.14 9.93l6.75-20.1 14.93 5.88S486.59 223 469.72 223s-17.33 21.04-14.24 28.43z" fill="#FF8173"/><path fill="#FFDC8E" d="M470 265.22l-3.66 3.78L452 256.74l4.92-3.74z"/><path fill="#FF8173" d="M470 265.11l-6-2.11 4.14 4z"/><path d="M484 245s-2.08 5.28-.13 9.71l-4.42-1.63.5 4.92s-5.78-1.34-6.95-4.2" stroke="#FF8173" stroke-width="1.67" stroke-linecap="round" stroke-linejoin="round"/><path d="M479.79 243.05a1.49 1.49 0 01.44 2.76 1.5 1.5 0 01-1.7-.17 1.48 1.48 0 01-.43-1.65c.21-.72.96-1.14 1.69-.94zM486.79 246.05a1.49 1.49 0 01.44 2.76 1.5 1.5 0 01-1.7-.17 1.48 1.48 0 01-.43-1.65c.2-.72.96-1.14 1.69-.94z" fill="#000" fill-rule="nonzero"/><path d="M425.01 261.8c-12 7.21-33.71 24.08-49.06 35-10.25 7.3-7.39 19.57-2.7 24.62 5.1 5.5 13.3 7.44 25.91-2.17 12.6-9.61 41.05-30.27 47.96-35.07 6.9-4.8 9-18.02 4.5-24.02s-14.6-5.56-26.6 1.64z" fill="#6E86FF"/><path d="M473 301h-92.04s-18.18 3.01-9.71 18.76c4.7 8.73 13.95 10.24 22.25 10.24s74.87-5.46 74.87-5.46L473 301zM360.3 401.11a3.21 3.21 0 00-3.15-3.1c-3.08-.29-9.62 7.3-13.62 11.18-4 3.89-12.45 6.59-11.45 8.81 7.27 0 28.92-.86 28.92-.86l-.7-16.03z" fill="#6E86FF"/><path stroke="#000" stroke-width="1.67" stroke-linecap="round" stroke-linejoin="round" d="M426 301l-21 15"/><path d="M473.83 301.01c-4.21.21-12.02 4.37-11.83 11.32.2 6.95 3.36 11.82 7.12 13.26 3.77 1.43 14.6-.69 17.4-9.44a35.3 35.3 0 001.4-6.04s7.3-1.89 11.6-3.22c4.08-1.26 2.85-3.42-1.66-3.32l-17.45.4s-1.67-3.2-6.58-2.96z" fill="#FFDC8E"/><path d="M432.98 339c-2.03 5.05-.83 10.94 3.31 16.73 4.15 5.8 25.32 35.3 30.45 42.6 5.13 7.31 4.05 18.67-2.18 18.67H360.93s-8.33-6.84-.74-15.68c5.85-1.36 35.24-6.21 35.24-6.21s-20.05-27.94-9.84-56.08" fill="#FF8173"/><path d="M283.48 164.96a66.7 66.7 0 0161.64 41.26 66.93 66.93 0 01-14.47 72.85 66.61 66.61 0 01-72.7 14.47 66.84 66.84 0 01-41.17-61.77c.03-36.9 29.88-66.8 66.7-66.81zM267.8 11.43a16.5 16.5 0 0131.39 0l36.32 112.01a34.08 34.08 0 0032.41 23.59H485.5a16.56 16.56 0 019.7 29.92l-95.14 69.22a34.17 34.17 0 00-12.37 38.17L424 396.35a16.56 16.56 0 01-6 18.5 16.48 16.48 0 01-19.4 0l-95.1-69.27a34.03 34.03 0 00-40.05 0l-95.1 69.26a16.48 16.48 0 01-19.4 0 16.56 16.56 0 01-6-18.49l36.32-112.01a34.17 34.17 0 00-12.37-38.17l-95.1-69.23a16.56 16.56 0 019.7-29.91h117.54a34.08 34.08 0 0032.42-23.59c9.12-28.14 24.6-75.9 36.32-112.01z" fill="#FFDC8E"/><path d="M194.55 137.13c-2.28-2.05-9.5-1.13-11.96 1.36-2.75 2.76-4.82 5.57-2.75 9.47 2.08 3.9 3.92 8.38 3.69 12.4-.24 4.02 4.52 2.07 4.22-.53.44 3.1 5.4 5.36 4.84-.32 1.36 2.15 5.56 3.77 5.22-2.76 1.2 1.62 6.85 2.43 4.71-3.86-2.13-6.29-5.7-13.72-7.97-15.76z" fill="#FEC8C2"/><path d="M187 160s-.38-6.74-1-9M192 160s.03-6.06-1-10M198 157s-.24-5.48-2-9" stroke="#FF8173" stroke-width="1.67" stroke-linecap="round" stroke-linejoin="round"/><path d="M131 297.98s.82 22.8 7.6 22c6.77-.8 17.09-40.84 15.17-54.53-1.93-13.69-11.13-4.86-14.69-2.1-3.56 2.77-7.59 9.27-7.59 9.27l-.49 25.36z" fill="#ACE4FF"/><path d="M69.32 295.98c4.3 6.49 13.75 15.37 31.3 10.73 19.32-5.1 27.01-7.67 33.98-10.47 9.24-3.7 17.73-21.18 4.8-25.1-15.38-4.65-50-.93-61.94 3.62-11.3 4.3-12.45 14.73-8.14 21.22z" fill="#FF8173"/><path d="M133.9 223s-44.6 35.72-55.8 45.64c-11.22 9.93-13.71 19.84-8.48 28.03 5.23 8.19 15.7 8.69 28.65 0C111.22 288 176 253.26 176 253.26L133.9 223z" fill="#FF8173"/><path stroke="#000" stroke-width="1.67" stroke-linecap="round" stroke-linejoin="round" d="M142 271l-44 25"/><path d="M90.68 337.42a9.29 9.29 0 0117.66 0 13.01 13.01 0 0012.38 9.02 9.28 9.28 0 015.45 16.81 13.06 13.06 0 00-4.73 14.58 9.3 9.3 0 01-14.26 10.37 13.01 13.01 0 00-15.31 0 9.27 9.27 0 01-14.31-10.37 13.06 13.06 0 00-4.73-14.59 9.3 9.3 0 015.45-16.8c5.65 0 10.65-3.65 12.38-9.03h.02zM370.68 11.42a9.28 9.28 0 0117.65 0 13.02 13.02 0 0012.39 9.03 9.28 9.28 0 015.45 16.81 13.04 13.04 0 00-4.73 14.57 9.3 9.3 0 01-14.28 10.4 13.02 13.02 0 00-15.32 0 9.27 9.27 0 01-14.28-10.4 13.05 13.05 0 00-4.73-14.57 9.3 9.3 0 015.45-16.81c5.65 0 10.66-3.65 12.4-9.03z" fill="#FFDC8E"/><path stroke="#000" stroke-width="1.67" stroke-linecap="round" stroke-linejoin="round" d="M283.5 344v74M498 283l9 3M419 358s25.12 34.18 28.49 38.93c3.36 4.75 6.73 14.35-2.25 20.07"/><path d="M397.2 133h20.6l1.2 3.45s.5 10.55-11.73 10.55c-12.22 0-11.25-10.86-11.25-10.86l1.18-3.14z" fill="#FF8173"/><path d="M398.05 135c-1.46 0-7.74 1.27-6.99 8.31.76 7.05 7 20.69 7 20.69l6.94-3.17s-1.02-16.16-1.64-20.26c-.62-4.1-2.82-5.57-5.3-5.57zM415.44 135c1.36 0 7.2 1.27 6.5 8.32-.7 7.05-6.48 20.68-6.48 20.68l-6.46-3.17s.95-16.17 1.52-20.27c.57-4.1 2.6-5.56 4.92-5.56z" fill="#FEC8C2"/><path d="M397.54 165.25c.9 2.27-1.66 7.05-2.91 9.86-1.25 2.82-.68 3.85 2.09 1.84 2.76-2 8.28-7.53 8.28-7.53l-.83-7.42s-4.31 1.95-6.63 3.25zM414.46 165.25c-.9 2.27 1.66 7.05 2.91 9.86 1.25 2.82.68 3.85-2.08 1.84-2.77-2-8.29-7.53-8.29-7.53l.84-7.42s4.29 1.95 6.62 3.25z" fill="#FFF"/><path d="M408.37 110c-3.69 0-5.8.12-9.25.18-3.45.07-8.47 2.9-10.5 7.66-2.02 4.76-12.62 26.6-12.62 26.6s-5.38 1.06-6 2.56h9.07c.89 0 2.48-1.33 3.8-3.23 1.32-1.91 13.06-17.62 13.06-17.62l1.36 6.24h11.06s3.7-22.39.02-22.39z" fill="#6E86FF"/><path d="M401.62 105s-2.01-5.58 1.22-7.61c3.23-2.03 8.16 4.6 8.16 4.6l-9.38 3.01z" fill="#FF8173"/><path d="M406.63 110c3.68 0 5.8.12 9.25.18 3.45.07 8.47 2.9 10.5 7.66 2.03 4.76 12.62 26.6 12.62 26.6s5.38 1.06 6 2.56h-9.07c-.88 0-2.47-1.33-3.8-3.23-1.33-1.91-13.06-17.62-13.06-17.62l-1.35 6.24h-11.07s-3.7-22.39-.02-22.39z" fill="#6E86FF"/><path d="M402 111.05s2.05 3.95 4.64 3.95c2.58 0 4.36-4 4.36-4l-9 .05z" fill="#000" fill-rule="nonzero"/><circle fill="#FEC8C2" fill-rule="nonzero" cx="407.5" cy="106.5" r="5.5"/></g></svg>