<svg xmlns="http://www.w3.org/2000/svg" viewBox="0 0 1861 1297" width="1861" height="1297">
	<defs>
		<clipPath clipPathUnits="userSpaceOnUse" id="cp1">
			<path d="M-917 -362L2923 -362L2923 1798L-917 1798L-917 -362Z" />
		</clipPath>
	</defs>
	<style>
		tspan { white-space:pre }
		.shp0 { fill: #def4ff } 
		.shp1 { fill: #a8e7c7 } 
		.shp2 { fill: #6ed7a1 } 
		.shp3 { fill: #000000 } 
		.shp4 { fill: #a36a63 } 
		.shp5 { fill: none;stroke: #000000;stroke-linecap:round;stroke-linejoin:round;stroke-width: 3.204 } 
		.shp6 { fill: #6e86ff } 
		.shp7 { fill: #ffffff } 
		.shp8 { fill: #ffdc8e } 
		.shp9 { fill: #ff8173 } 
		.shp10 { fill: #fec8c2 } 
		.shp11 { fill: none;stroke: #ff8173;stroke-linecap:round;stroke-linejoin:round;stroke-width: 3.204 } 
		.shp12 { fill: none;stroke: #a8e7c7;stroke-linecap:round;stroke-linejoin:round;stroke-width: 3.204 } 
		.shp13 { fill: none;stroke: #6ed7a1;stroke-linecap:round;stroke-linejoin:round;stroke-width: 3.204 } 
	</style>
	<g id="Clip-Path: Page 1" clip-path="url(#cp1)">
		<g id="Page 1">
			<path id="Path 2" class="shp0" d="M1224.91 0.86C1575.98 0.86 1861 285.88 1861 636.95C1861 988.01 1575.98 1273.04 1224.91 1273.04C873.84 1273.04 588.82 988.01 588.82 636.95C588.82 285.88 873.84 0.86 1224.91 0.86Z" />
			<path id="Path 3" class="shp1" d="M405.18 647.56C387.45 642.93 335.03 644.52 314.38 663.59C293.73 682.64 264.34 708.06 250.04 722.36C235.75 736.66 224.63 767.63 238.92 794.64C253.22 821.64 339 982.88 339 982.88L524.06 1035.3L631.1 1007.75L673.12 786.53L658.29 668.35C658.29 668.35 422.91 652.18 405.18 647.56Z" />
			<path id="Path 4" class="shp2" d="M257.6 715.07C257.6 715.07 290.49 752.64 304.47 735C318.45 717.36 316.84 666.08 316.84 666.08L257.6 715.07Z" />
			<path id="Path 5" class="shp3" d="M1027.7 546.21L1069.81 472.76L1127.48 494.53L1052.12 627.39L1027.7 546.21Z" />
			<path id="Path 6" class="shp4" d="M1069.8 475.87C1064.07 469.65 1056.21 453.58 1060.7 435.05C1065.18 416.52 1071.41 404.86 1073.07 400.39C1074.75 395.9 1086.1 386.94 1092.68 386.34C1099.24 385.74 1099.84 384.84 1099.84 384.84C1099.84 384.84 1142.58 324.78 1150.65 313.72C1158.71 302.67 1167.98 311.34 1162.9 322.09C1157.81 332.85 1134.21 387.24 1134.21 387.24C1134.21 387.24 1155.43 408.45 1162.3 419.22C1169.17 429.97 1169.47 441.03 1164.99 447.6C1160.51 454.17 1151.24 459.55 1151.24 459.55C1151.24 459.55 1145.85 491.48 1127.48 497.63C1104.92 489.14 1075.54 482.08 1069.8 475.87Z" />
			<path id="Path 7" fill-rule="evenodd" class="shp5" d="M1099.84 384.84C1108.99 384.23 1124.29 388.05 1125.25 392.64C1126.2 397.23 1120.69 406.79 1107.28 411.38C1093.88 415.97 1090.43 425.53 1090.06 434.14M1131.56 416.55C1131.56 416.55 1120.99 432.99 1113.35 441.69C1112.27 442.92 1111.25 444 1110.33 444.85C1102.87 451.74 1100.57 442.17 1103.44 434.14C1106.31 426.11 1113.67 408.53 1113.67 408.53M1156.52 439.04C1156.52 439.04 1138.43 452.34 1128.62 459.55C1119.23 466.45 1118.02 454.1 1121.19 449.57" />
			<path id="Path 8" class="shp2" d="M331.25 1000.95C299.97 1000.95 265.07 1013.67 213.41 1052.76C161.74 1091.85 108.69 1114.19 79.37 1137.23C50.05 1160.27 33.3 1199.36 52.14 1227.98C71 1256.6 85.66 1275.45 142.9 1275.45L861.29 1275.45L766.99 1039.01C766.99 1039.01 695.78 1021.83 653.9 1011.12C612.01 1000.41 561.7 998.09 536.25 998.09C510.79 998.09 362.54 1000.95 331.25 1000.95Z" />
			<path id="Path 9" class="shp3" d="M301.33 1152.79C301.93 1174.03 310.13 1212.09 333.55 1215.02C356.98 1217.95 375.39 1188.09 375.4 1171.69C375.42 1155.29 300.73 1131.55 301.33 1152.79Z" />
			<path id="Path 10" class="shp5" d="M1129.3 459.05C1126.82 462.81 1130.91 473.49 1151.24 459.55" />
			<path id="Path 11" class="shp6" d="M821.99 490.46C731.28 490.46 544.78 492.16 488.71 492.5C432.65 492.85 388.83 539.38 388.83 590.35C388.83 641.31 440.81 713.67 502.98 713.67C565.15 713.67 637.51 677.42 637.51 677.42L774.26 1090.49L861.85 1276.62L991.24 1286.65L1107.28 752.2C1107.28 752.2 1069.48 657.39 1056.26 610.1C1043.04 562.81 1005.53 490.24 940.3 490.24C875.08 490.24 912.69 490.46 821.99 490.46Z" />
			<path id="Path 12" class="shp2" d="M923.45 1197.9C923.45 1197.9 932.23 926.88 933.78 878.89C935.34 830.91 977.61 753.53 1038.77 753.53L1253.81 753.53C1312.93 753.53 1431.15 789.2 1480.07 909.47C1529 1029.73 1550.39 1090.88 1563.65 1134.71C1576.89 1178.53 1578.94 1241.72 1539.18 1265.17C1499.44 1288.61 923.45 1276.62 923.45 1276.62L923.45 1197.9Z" />
			<path id="Path 13" class="shp7" d="M1097.14 753.53C1097.14 753.53 1070.81 796.11 1089.63 846.71C1105.11 836.67 1122.08 825.82 1122.08 825.82L1152.78 850.47C1152.78 850.47 1233.32 813.42 1247.84 753.53C1233.92 747.59 1231.18 752.6 1231.18 752.6L1097.14 753.53Z" />
			<path id="Path 14" class="shp2" d="M950.58 963.08L833.82 1049.83L974.07 1286.65L1102.97 1183.55L950.58 963.08Z" />
			<path id="Path 15" fill-rule="evenodd" class="shp8" d="M1128.12 1096.03C1228.45 1125.12 1576.58 1226.46 1576.58 1226.46L1576.58 1276.62L923.45 1276.62C923.45 1156.23 1027.79 1066.94 1128.12 1096.03ZM923.45 1276.62L270.32 1276.62L270.32 1226.46C270.32 1226.46 618.45 1125.12 718.78 1096.03C819.11 1066.94 923.45 1156.23 923.45 1276.62Z" />
			<path id="Path 16" class="shp3" d="M1205.4 718.3L1266.49 718.3L1266.49 661.84L1205.4 661.84L1205.4 718.3Z" />
			<path id="Path 17" class="shp9" d="M1589.62 1286.65C1589.62 1283.99 1588.56 1281.44 1586.69 1279.56C1584.81 1277.68 1582.25 1276.62 1579.59 1276.62L267.31 1276.62C264.65 1276.62 262.1 1277.68 260.21 1279.56C258.33 1281.44 257.28 1283.99 257.28 1286.65C257.28 1289.31 258.33 1291.86 260.21 1293.74C262.1 1295.63 264.65 1296.68 267.31 1296.68L1579.59 1296.68C1582.25 1296.68 1584.81 1295.63 1586.69 1293.74C1588.56 1291.86 1589.62 1289.31 1589.62 1286.65Z" />
			<path id="Path 18" class="shp10" d="M1097.14 733.63L1097.14 780.83C1097.14 802.74 1115.85 830.4 1137.25 830.4C1158.64 830.4 1231.18 752.59 1231.18 752.59L1231.18 705.47L1097.14 733.63Z" />
			<path id="Path 19" class="shp9" d="M1097.14 733.63L1097.14 742.98C1097.14 758.39 1120.64 767.84 1130.23 767.93C1166.68 768.28 1231.18 705.47 1231.18 705.47L1097.14 733.63Z" />
			<path id="Path 20" class="shp10" d="M1244.8 478.82C1297.52 509.26 1307.23 591.26 1266.49 661.84C1225.74 732.42 1149.86 765 1097.14 734.56C1044.42 704.13 1034.71 622.12 1075.46 551.55C1116.2 480.97 1192.08 448.39 1244.8 478.82Z" />
			<path id="Path 21" class="shp4" d="M920.88 281.52C965.87 307.5 976.89 372.79 945.45 427.24C914.01 481.68 851.97 504.8 806.97 478.82C761.99 452.84 750.97 387.55 782.41 333.1C813.85 278.66 875.89 255.54 920.88 281.52Z" />
			<path id="Path 22" class="shp10" d="M204.64 573.46C236.14 553.05 280.88 566.04 304.47 602.45C328.07 638.85 321.64 685 290.13 705.41C258.62 725.82 213.89 712.84 190.3 676.43C166.7 640.02 173.13 593.87 204.64 573.46Z" />
			<path id="Path 23" class="shp6" d="M199.16 528.17C202.97 505.14 227.68 490.02 254.3 494.44C280.91 498.84 299.42 521.12 295.6 544.15C291.79 567.17 267.08 582.29 240.47 577.89C213.85 573.48 195.35 551.2 199.16 528.17Z" />
			<path id="Path 24" class="shp11" d="M1229.81 632.69C1238.09 632.69 1246.72 626.19 1246.72 611.94" />
			<path id="Path 25" class="shp6" d="M1073.07 555.79L1194.39 555.79L1194.39 677.42C1194.39 677.42 1213.56 633.62 1213.56 612.25C1213.56 590.88 1219.59 581.02 1230.54 581.02C1241.51 581.02 1244.8 598 1244.8 612.8C1244.8 627.59 1243.46 677.62 1244.8 718.36C1278.95 717.72 1333.63 719.09 1333.63 719.09C1333.63 719.09 1331.37 614.21 1326.44 574.44C1320.23 524.42 1277.67 460.47 1209.18 460.47C1140.69 460.47 1087.1 522.35 1073.07 555.79Z" />
			<path id="Path 26" fill-rule="evenodd" class="shp11" d="M1068.15 586.11L1084.88 586.11C1086.6 586.11 1088.17 587.07 1088.94 588.6C1089.72 590.12 1089.58 591.95 1088.57 593.35C1081.41 603.19 1068.68 620.69 1061.52 630.54C1060.52 631.92 1060.37 633.75 1061.15 635.28C1061.92 636.81 1063.49 637.77 1065.21 637.77L1085.69 637.77M1120.45 586.11L1148.31 586.11" />
			<path id="Path 27" class="shp3" d="M1071.68 593.88C1073.54 593.88 1075.04 596.03 1075.04 598.68C1075.04 601.34 1073.54 603.5 1071.68 603.5C1069.82 603.5 1068.31 601.34 1068.31 598.68C1068.31 596.03 1069.82 593.88 1071.68 593.88ZM1128.74 593.88C1130.6 593.88 1132.12 596.03 1132.12 598.68C1132.12 601.34 1130.6 603.5 1128.74 603.5C1126.89 603.5 1125.38 601.34 1125.38 598.68C1125.38 596.03 1126.89 593.88 1128.74 593.88Z" />
			<path id="Path 28" class="shp9" d="M1071.68 661.84C1086.15 661.84 1107.28 660.42 1107.28 672.55C1107.28 684.69 1083.51 694.86 1075.04 694.86C1066.59 694.86 1056.26 679.59 1056.26 670.98C1056.26 662.38 1057.21 661.84 1071.68 661.84Z" />
			<path id="Path 29" class="shp10" d="M950.58 963.08C937.28 943.64 896.99 882.48 861.5 841.26C826.02 800.03 793.14 801.6 774.36 796.38C755.57 791.16 750.36 813.07 768.09 820.91C785.84 828.73 791.05 844.39 792.62 852.74C778.54 842.82 717.07 798.05 702.45 786.57C687.84 775.09 676.88 786.05 690.97 800.13C705.06 814.23 750.98 865.89 750.98 865.89C750.98 865.89 677.92 819.97 662.79 813.71C647.66 807.45 637.22 819.97 654.44 831.45C671.66 842.93 735.33 887.28 735.33 887.28C735.33 887.28 658.09 853.88 643.49 850.75C628.87 847.62 625.22 861.72 641.4 870.58C657.57 879.45 716.54 909.72 724.37 912.33C699.84 908.16 659.66 895.63 646.1 893.02C632.52 890.41 632.52 905.03 645.57 911.81C658.62 918.59 721.76 949.64 746.81 963.08C771.85 976.51 819.08 1027.13 833.82 1049.83C861.09 1029.74 924.75 986.69 950.58 963.08Z" />
			<path id="Path 30" class="shp11" d="M792.62 852.74C792.62 852.74 783 905.37 810.96 940.85M745.81 931.23L778.79 877.8" />
			<path id="Path 31" class="shp5" d="M950.58 963.08L1043.47 1098.11M1294.43 903.17L1402.1 1175.68" />
			<path id="Path 32" class="shp3" d="M777.87 607.02C776.33 624.59 776.33 669.09 795.47 677.42C814.62 685.76 847.3 642.8 848.71 620.4C850.11 597.98 779.42 589.45 777.87 607.02Z" />
			<path id="Path 33" class="shp5" d="M987.85 869.91L1035.38 1086.36M848.54 561.23L508.52 561.23M637.51 677.42C659.92 667.38 740.81 650.15 796.91 675.97" />
			<path id="Path 34" class="shp4" d="M851.28 558.64C825.51 556.35 790.28 566.64 780.16 597.9C771.43 624.87 782.25 642.26 802.6 656.86C822.95 671.48 839.7 712.35 841.84 729.45C843.98 746.56 858.4 745.76 858.4 729.19L858.4 711.29C858.4 711.29 870.16 736.4 872.56 750.83C874.97 765.26 888.86 755.9 887.53 741.21C886.19 726.52 886.99 725.18 886.99 725.18C886.99 725.18 890.47 728.92 896.07 734.53C901.69 740.14 910.89 735.07 910.03 723.05C909.17 711.02 906.77 686.44 903.29 674.68C908.37 680.02 913.71 691.78 916.38 697.13C919.05 702.47 930 699.53 927.6 685.1C925.2 670.68 916.65 640.22 912.37 627.66C908.1 615.1 882.02 561.36 851.28 558.64Z" />
			<path id="Path 35" class="shp5" d="M858.4 711.29C858.4 711.29 853 680.56 839.1 663.38M886.99 725.18C886.99 725.18 882.38 674.77 870.9 659.01M903.29 674.68C903.29 674.68 897.08 652.33 890.67 640.58" />
			<path id="Path 36" class="shp4" d="M897.6 276.89C905.8 271.42 920.51 259.79 927 254.67C933.5 249.54 937.26 255.01 935.89 262.53C934.53 270.05 924.61 296.73 924.61 296.73C924.61 296.73 889.39 282.37 897.6 276.89Z" />
			<path id="Path 37" class="shp9" d="M925.3 349.4C904.77 349.4 878.44 356.57 878.44 380.17C878.44 403.77 908.27 409.93 920.88 409.93C933.5 409.93 956.42 387.69 956.42 374.36C956.42 361.02 945.81 349.4 925.3 349.4Z" />
			<path id="Path 38" fill-rule="evenodd" class="shp5" d="M830.57 391.19C823.45 406.51 812.24 410.61 797.46 407.6C782.69 404.59 773.66 385.16 778.31 370.94C782.96 356.71 794.72 356.71 794.72 356.71M795.55 367.11C795.55 367.11 785.42 379.69 793.91 387.63C802.39 395.57 812.24 390.91 812.24 390.91" />
			<path id="Path 39" class="shp3" d="M849.66 297.03C852.05 299.22 851.76 303.45 848.99 306.48C846.23 309.5 842.04 310.17 839.65 307.99C837.25 305.8 837.55 301.57 840.31 298.54C843.07 295.52 847.27 294.84 849.66 297.03Z" />
			<path id="Path 40" class="shp6" d="M784.32 459.17C789.01 464.94 783.24 482.34 774.56 490.58C781.56 500.49 851.89 525.09 884.6 520.79C917.3 516.49 891.42 478.82 891.42 478.82C891.42 478.82 846.69 470.19 784.32 459.17Z" />
			<path id="Path 41" fill-rule="evenodd" class="shp10" d="M440.97 866.02C495.51 866.02 540.05 913.91 542.36 973.87C544.24 971.41 549.78 965.56 556.22 971.42C563.99 978.51 548.85 1009.91 538.21 1011.09C526.86 1053.19 493.93 1084.98 453.72 1090.59C453.86 1090.12 453.93 1089.86 453.93 1089.86L428.11 1088.04C428.11 1088.04 428.49 1089.06 429.09 1090.7C388.48 1085.44 355.17 1053.51 343.73 1011.12C354.38 1010.84 339.56 974.88 339.54 974.84C341.4 914.43 386.13 866.02 440.97 866.02ZM440.97 1091.47C436.95 1091.47 432.99 1091.21 429.09 1090.7C431.07 1096.07 435.45 1108.05 436.94 1112.5C438.87 1118.31 445.24 1117.48 447.45 1111.11C449.37 1105.59 452.84 1093.65 453.72 1090.59C449.54 1091.17 445.29 1091.47 440.97 1091.47ZM343.73 1011.12C343.73 1011.12 343.73 1011.12 343.73 1011.12C333.07 1011.38 317.03 978.68 324.99 971.42C332.95 964.17 339.54 974.84 339.54 974.84C339.54 974.84 339.54 974.84 339.54 974.84C339.5 976.14 339.48 977.44 339.48 978.75C339.48 990 340.97 1000.87 343.73 1011.12Z" />
			<path id="Path 42" fill-rule="evenodd" class="shp9" d="M440.97 861.1L440.97 861.1C407.01 863.41 407.88 1006.41 440.97 1038.96L440.97 1039.01C405.92 1039.01 387.18 1013 377.78 1000.83C368.37 988.65 352.88 994.47 347.58 1011.12C346.99 997.61 339.54 974.84 339.54 974.84C344.19 860.59 440.97 861.1 440.97 861.1ZM441.02 861.1C441 861.1 440.99 861.1 440.97 861.1L440.97 1038.96C440.99 1038.98 441 1038.99 441.02 1039.01C476.06 1039.01 494.81 1013 504.21 1000.83C513.62 988.65 529.11 994.47 534.41 1011.12C535 997.61 542.45 974.84 542.45 974.84C537.8 860.59 441.02 861.1 441.02 861.1Z" />
			<path id="Path 43" class="shp11" d="M392.19 1062.7C400.94 1064.74 408.98 1070.1 416.26 1079.03M489.86 1062.7C478.76 1066.25 470.49 1071.54 465.79 1079.03" />
			<path id="Path 44" class="shp12" d="M315.78 1108.39L118.45 1179.8" />
			<path id="Path 45" fill-rule="evenodd" class="shp9" d="M398.4 1073.58C397.64 1074.55 398.42 1076.42 400.13 1077.77C401.85 1079.12 403.86 1079.43 404.62 1078.46C405.38 1077.49 404.6 1075.62 402.89 1074.27C401.17 1072.92 399.16 1072.61 398.4 1073.58ZM477.93 1074.27C476.22 1075.62 475.44 1077.49 476.2 1078.46C476.97 1079.43 478.98 1079.12 480.69 1077.77C482.4 1076.42 483.18 1074.55 482.42 1073.58C481.66 1072.61 479.65 1072.92 477.93 1074.27Z" />
			<path id="Path 46" class="shp10" d="M321.38 1104.17C341.51 1098.31 371.53 1089.53 383.6 1104.9C395.68 1120.27 405.56 1157.6 409.22 1167.85C412.88 1178.1 398.86 1184.47 391.36 1175.85C383.87 1167.23 380.31 1164.98 380.31 1164.98C380.31 1164.98 371.13 1179.97 354.26 1183.16C338.41 1186.15 305.78 1189.51 301.79 1150.93C300.31 1136.58 301.26 1110.02 321.38 1104.17Z" />
			<path id="Path 47" class="shp11" d="M380.31 1164.98L362.22 1146.3" />
			<path id="Path 48" class="shp2" d="M252.57 820.35L188.28 820.35L200.6 888.45L305.76 920.39L252.57 820.35Z" />
			<path id="Path 49" class="shp10" d="M191.22 820.48C173.28 821.13 149.46 820.35 139.31 820.35C129.17 820.35 127.61 829.32 138.14 831.66C148.68 834 158.82 839.08 158.82 839.08C158.82 839.08 112.38 856.64 96.77 862.49C81.16 868.35 86.32 878.95 100.69 875.91C116.34 872.6 150.98 864.97 150.98 864.97C150.98 864.97 107.7 885.91 99.11 889.42C90.53 892.93 91.3 905.03 104.19 900.35C117.07 895.66 156.48 882.39 156.48 882.39C156.48 882.39 122.92 905.43 113.16 912.06C103.41 918.69 106.53 930.01 120.19 922.59C133.84 915.18 166.63 896.83 166.63 896.83C166.63 896.83 145.17 920.25 138.92 926.49C132.68 932.74 139.31 940.93 150.24 931.57C161.17 922.2 206.97 887.73 217.11 878.51C236.88 860.54 219.71 819.44 191.22 820.48Z" />
			<path id="Path 50" class="shp13" d="M387.61 738.63L558.39 778.43L535.23 935.81" />
			<path id="Path 51" class="shp6" d="M202.08 570.37C189.42 580.87 164.52 615.2 179.44 652.84C198.69 639.23 232.27 618.84 232.27 618.84L262.9 654.97C262.9 654.97 253.95 621.93 263.52 612.05C273.09 602.17 283.29 619.77 287.3 625.33C291.31 630.89 302.35 647.21 318.59 645.38C320.95 624.09 309.61 574.82 261.06 561.1C234.81 553.7 214.73 559.87 202.08 570.37Z" />
			<path id="Path 52" class="shp10" d="M198.66 666.08C198.66 666.08 198.95 696.04 198.66 703.44C198.37 710.85 204.12 711.2 207.03 705.41C209.95 699.62 215.37 690.15 215.37 690.15L198.66 666.08Z" />
			<path id="Path 53" class="shp8" d="M1341.71 308.59C1320.74 308.72 1303.73 325.73 1303.6 346.7L1303.59 346.95C1303.59 325.78 1286.4 308.59 1265.23 308.59C1286.4 308.59 1303.59 291.39 1303.59 270.22L1303.6 270.47C1303.73 291.53 1320.86 308.59 1341.96 308.59L1341.71 308.59ZM77.02 689.07C56.04 689.2 39.03 706.21 38.91 727.19L38.91 727.43C38.91 706.26 21.71 689.07 0.54 689.07C21.71 689.07 38.91 671.88 38.91 650.71L38.91 650.96C39.03 672.02 56.17 689.07 77.27 689.07L77.02 689.07ZM1485.39 475.42C1473.24 475.5 1463.4 485.35 1463.32 497.49L1463.32 497.63C1463.32 485.37 1453.37 475.42 1441.11 475.42C1453.37 475.42 1463.32 465.47 1463.32 453.21L1463.32 453.35C1463.4 465.55 1473.32 475.42 1485.53 475.42L1485.39 475.42ZM1515.3 313.9C1503.16 313.97 1493.31 323.82 1493.24 335.96L1493.24 336.11C1493.24 323.84 1483.28 313.9 1471.02 313.9C1483.28 313.9 1493.24 303.94 1493.24 291.68L1493.24 291.83C1493.31 304.02 1503.23 313.9 1515.44 313.9L1515.3 313.9Z" />
			<path id="Path 54" class="shp5" d="M774.57 490.58C774.57 490.58 802.56 521.66 869 524.44C935.45 527.23 897.61 490.32 897.61 490.32" />
			<path id="Path 55" class="shp11" d="M158.82 839.08C158.82 839.08 181.02 857.11 202.08 855.25M158.82 855.38L180.45 883.13" />
		</g>
	</g>
</svg>